<?xml version="1.0" encoding="UTF-8" standalone="no"?>
<!-- Created with Inkscape (http://www.inkscape.org/) -->

<svg
   width="48"
   height="48"
   viewBox="0 0 12.7 12.7"
   version="1.1"
   id="svg1"
   xml:space="preserve"
   sodipodi:docname="bitmap6.svg"
   inkscape:version="1.4.2 (f4327f4, 2025-05-13)"
   xmlns:inkscape="http://www.inkscape.org/namespaces/inkscape"
   xmlns:sodipodi="http://sodipodi.sourceforge.net/DTD/sodipodi-0.dtd"
   xmlns="http://www.w3.org/2000/svg"
   xmlns:svg="http://www.w3.org/2000/svg"><sodipodi:namedview
     id="namedview1"
     pagecolor="#505050"
     bordercolor="#eeeeee"
     borderopacity="1"
     inkscape:showpageshadow="0"
     inkscape:pageopacity="0"
     inkscape:pagecheckerboard="0"
     inkscape:deskcolor="#505050"
     inkscape:document-units="mm"
     inkscape:zoom="16.8125"
     inkscape:cx="23.97026"
     inkscape:cy="24"
     inkscape:window-width="1920"
     inkscape:window-height="1009"
     inkscape:window-x="1016"
     inkscape:window-y="-8"
     inkscape:window-maximized="1"
     inkscape:current-layer="layer1"><inkscape:page
       x="0"
       y="0"
       width="12.7"
       height="12.7"
       id="page2"
       margin="0"
       bleed="0" /></sodipodi:namedview><defs
     id="defs1"><inkscape:path-effect
       effect="fillet_chamfer"
       id="path-effect8"
       is_visible="true"
       lpeversion="1"
       nodesatellites_param="F,0,0,1,0,0,0,1 @ F,0,0,1,0,0,0,1 @ F,0,0,1,0,0,0,1 @ F,0,0,1,0,0,0,1 @ F,0,0,1,0,0,0,1 @ F,0,0,1,0,0,0,1 @ F,0,0,1,0,0,0,1 @ F,0,0,1,0,0,0,1 @ F,0,0,1,0,0,0,1 | F,0,0,1,0,1.851059,0,1 @ F,0,0,1,0,1.688783,0,1 @ F,0,0,1,0,2.1677282,0,1 | F,0,0,1,0,2.2370862,0,1 @ F,0,0,1,0,2.101752,0,1 @ F,0,0,1,0,1.581859,0,1 | F,0,0,1,0,2.208728,0,1 @ F,0,0,1,0,2.0007707,0,1 @ F,0,0,1,0,2.4618969,0,1 | F,0,0,1,0,1.9458357,0,1 @ F,0,0,1,0,2.0533496,0,1 @ F,0,0,1,0,1.7898683,0,1"
       radius="0"
       unit="px"
       method="auto"
       mode="F"
       chamfer_steps="1"
       flexible="false"
       use_knot_distance="true"
       apply_no_radius="true"
       apply_with_radius="true"
       only_selected="false"
       hide_knots="false" /></defs><g
     inkscape:label="Layer 1"
     inkscape:groupmode="layer"
     id="layer1"><path
       id="path2"
       style="stroke-width:0.264583;"
       d="m 76.639766,120.02988 c -1.27002,0 -2.539813,0.48671 -3.512963,1.45986 L 43.45988,151.15667 c -1.946307,1.94631 -1.946307,5.08013 0,7.02644 l 29.666923,29.66692 c 1.94631,1.94631 5.080144,1.94631 7.026444,0 l 29.666923,-29.66692 c 1.94631,-1.94631 1.9463,-5.08013 0,-7.02644 L 80.153247,121.48974 c -0.97315,-0.97315 -2.243461,-1.45986 -3.513481,-1.45986 z m -3.982185,15.08591 v 13.86789 a 1.688783,1.688783 135 0 1 -1.688783,1.68878 H 57.417586 a 0.89790268,0.89790268 67.499994 0 1 -0.634913,-1.53282 l 14.566012,-14.56601 a 0.76673352,0.76673352 22.499994 0 1 1.308896,0.54216 z m 9.576203,-0.2397 14.310245,14.31025 A 0.87057429,0.87057429 112.5 0 1 95.92844,150.6725 H 82.233784 a 1.581859,1.581859 45 0 1 -1.581859,-1.58186 l 0,-13.55932 a 0.92663133,0.92663133 157.5 0 1 1.581859,-0.65523 z M 57.458069,158.6668 H 70.65681 a 2.0007707,2.0007707 45 0 1 2.000771,2.00077 v 12.94557 a 1.0197511,1.0197511 157.5 0 1 -1.740824,0.72108 L 56.811148,160.22861 a 0.91488509,0.91488509 112.5 0 1 0.646921,-1.56181 z m 25.139692,0 h 13.379598 a 0.85052546,0.85052546 67.499995 0 1 0.601413,1.45194 l -14.661219,14.66122 a 0.74138754,0.74138754 22.499995 0 1 -1.265628,-0.52424 v -13.64308 a 1.9458357,1.9458357 135 0 1 1.945836,-1.94584 z"
       inkscape:path-effect="#path-effect8"
       inkscape:original-d="m 76.639766,120.02988 c -1.27002,0 -2.539813,0.48671 -3.512963,1.45986 L 43.45988,151.15667 c -1.946307,1.94631 -1.946307,5.08013 0,7.02644 l 29.666923,29.66692 c 1.94631,1.94631 5.080144,1.94631 7.026444,0 l 29.666923,-29.66692 c 1.94631,-1.94631 1.9463,-5.08013 0,-7.02644 L 80.153247,121.48974 c -0.97315,-0.97315 -2.243461,-1.45986 -3.513481,-1.45986 z m -3.982185,13.23485 v 17.40773 H 55.249858 Z m 7.994344,0.0295 17.378267,17.37827 H 80.651925 Z M 55.249341,158.6668 h 17.40824 v 17.40824 z m 25.402584,0 h 17.378784 l -17.378784,17.37879 z"
       transform="matrix(0.17694682,0,0,0.17694682,-7.2112211,-21.018334)" /></g></svg>
