<?xml version="1.0" encoding="UTF-8" standalone="no"?>
<!-- Created with Inkscape (http://www.inkscape.org/) -->

<svg
   width="48"
   height="48"
   viewBox="0 0 12.7 12.7"
   version="1.1"
   id="svg1"
   inkscape:version="1.4.2 (f4327f4, 2025-05-13)"
   sodipodi:docname="drawing.svg"
   xmlns:inkscape="http://www.inkscape.org/namespaces/inkscape"
   xmlns:sodipodi="http://sodipodi.sourceforge.net/DTD/sodipodi-0.dtd"
   xmlns="http://www.w3.org/2000/svg"
   xmlns:svg="http://www.w3.org/2000/svg">
  <sodipodi:namedview
     id="namedview1"
     pagecolor="#505050"
     bordercolor="#eeeeee"
     borderopacity="1"
     inkscape:showpageshadow="0"
     inkscape:pageopacity="0"
     inkscape:pagecheckerboard="0"
     inkscape:deskcolor="#505050"
     inkscape:document-units="mm"
     inkscape:zoom="1.9477379"
     inkscape:cx="282.37885"
     inkscape:cy="421.77132"
     inkscape:window-width="1920"
     inkscape:window-height="991"
     inkscape:window-x="-9"
     inkscape:window-y="-9"
     inkscape:window-maximized="1"
     inkscape:current-layer="layer1">
    <inkscape:page
       x="0"
       y="0"
       width="12.7"
       height="12.7"
       id="page2"
       margin="0"
       bleed="0" />
  </sodipodi:namedview>
  <defs
     id="defs1" />
  <g
     inkscape:label="Layer 1"
     inkscape:groupmode="layer"
     id="layer1">
    <path
       id="path4"
       style="stroke-width:0.0399711"
       d="m 1.3682139,0.43224451 c -0.68621114,6.935e-5 -1.24246331,0.55635916 -1.24248027,1.24256899 1.545e-5,0.6411386 0.4855521,1.1688167 1.10900967,1.2354411 0.073429,0.00786 0.1335633,0.06704 0.1335633,0.1408853 v 8.0261151 c 0,0.688405 0.5541715,1.242576 1.2425728,1.242576 h 6.0893085 0.694423 1.7445641 c 0.792582,0 1.435092,-0.64251 1.435092,-1.43509 V 10.114506 A 0.27985058,0.27985058 0 0 0 12.294438,9.8346847 H 10.927666 A 0.29051761,0.29051761 0 0 1 10.637181,9.5441994 V 1.6748135 c 0,-0.68839825 -0.554172,-1.24256899 -1.2425701,-1.24256899 H 1.3783171 Z m 2.345929,1.13283069 h 4.577298 c 0.5571915,0 1.0057544,0.4485626 1.0057544,1.0057541 v 7.2638554 0.3465543 c 0,0.411474 -0.2446598,0.763653 -0.5970074,0.919741 -0.1247807,0.05525 -0.263031,0.08602 -0.408747,0.08602 h -4.577298 c -0.5571924,0 -1.0057558,-0.448563 -1.0057558,-1.005763 V 2.5708293 c 0,-0.5571915 0.4485634,-1.0057541 1.0057558,-1.0057541 z M 4.0276127,2.546086 a 0.32892424,0.32892424 0 0 0 -0.3289485,0.328853 0.32892424,0.32892424 0 0 0 0.3289485,0.3289455 0.32892424,0.32892424 0 0 0 6.459e-4,0 h 3.9883542 7.166e-4 A 0.32892424,0.32892424 0 0 0 8.3462827,2.874939 0.32892424,0.32892424 0 0 0 8.0173294,2.546086 Z m 0,1.388833 a 0.32892424,0.32892424 0 0 0 -0.3289485,0.328853 0.32892424,0.32892424 0 0 0 0.3289485,0.3289531 0.32892424,0.32892424 0 0 0 6.459e-4,0 h 3.9883542 7.166e-4 A 0.32892424,0.32892424 0 0 0 8.3462827,4.263772 0.32892424,0.32892424 0 0 0 8.0173294,3.934919 Z m 0,1.4374951 a 0.32892424,0.32892424 0 0 0 -0.3289485,0.3288529 0.32892424,0.32892424 0 0 0 0.3289485,0.3289531 0.32892424,0.32892424 0 0 0 6.459e-4,0 h 3.9883542 7.166e-4 A 0.32892424,0.32892424 0 0 0 8.3462827,5.701267 0.32892424,0.32892424 0 0 0 8.0173294,5.3724141 Z m 0,1.38874 a 0.32892424,0.32892424 0 0 0 -0.3289485,0.3288534 0.32892424,0.32892424 0 0 0 0.3289485,0.3289531 0.32892424,0.32892424 0 0 0 6.459e-4,0 h 3.9883542 7.166e-4 A 0.32892424,0.32892424 0 0 0 8.3462827,7.0900075 0.32892424,0.32892424 0 0 0 8.0173294,6.7611541 Z m 0,1.3152427 a 0.32892424,0.32892424 0 0 0 -0.3289485,0.3288534 0.32892424,0.32892424 0 0 0 0.3289485,0.3289532 0.32892424,0.32892424 0 0 0 6.459e-4,0 h 3.9883542 7.166e-4 A 0.32892424,0.32892424 0 0 0 8.3462827,8.4052502 0.32892424,0.32892424 0 0 0 8.0173294,8.0763968 Z m 0,1.3888337 a 0.32892424,0.32892424 0 0 0 -0.3289485,0.328852 0.32892424,0.32892424 0 0 0 0.3289485,0.3289525 0.32892424,0.32892424 0 0 0 6.459e-4,0 h 0.032164 1.9627563 0.031423 v -0.0016 A 0.32892424,0.32892424 0 0 0 6.3521344,9.7940486 0.32892424,0.32892424 0 0 0 6.0546024,9.4666831 v -0.00157 H 6.0231892 4.0604324 Z" />
  </g>
</svg>
