<?xml version="1.0" encoding="UTF-8" standalone="no"?>
<!-- Created with Inkscape (http://www.inkscape.org/) -->

<svg
   width="48"
   height="48"
   viewBox="0 0 12.7 12.7"
   version="1.1"
   id="svg1"
   inkscape:export-filename="bitmap.svg"
   inkscape:export-xdpi="96"
   inkscape:export-ydpi="96"
   xmlns:inkscape="http://www.inkscape.org/namespaces/inkscape"
   xmlns:sodipodi="http://sodipodi.sourceforge.net/DTD/sodipodi-0.dtd"
   xmlns:xlink="http://www.w3.org/1999/xlink"
   xmlns="http://www.w3.org/2000/svg"
   xmlns:svg="http://www.w3.org/2000/svg">
  <sodipodi:namedview
     id="namedview1"
     pagecolor="#505050"
     bordercolor="#eeeeee"
     borderopacity="1"
     inkscape:showpageshadow="0"
     inkscape:pageopacity="0"
     inkscape:pagecheckerboard="0"
     inkscape:deskcolor="#505050"
     inkscape:document-units="mm">
    <inkscape:page
       x="0"
       y="0"
       width="12.7"
       height="12.7"
       id="page2"
       margin="0"
       bleed="0" />
  </sodipodi:namedview>
  <defs
     id="defs1">
    <inkscape:path-effect
       effect="fillet_chamfer"
       id="path-effect70"
       is_visible="true"
       lpeversion="1"
       nodesatellites_param="F,0,0,1,0,0,0,1 @ F,0,0,1,0,0,0,1 @ F,0,0,1,0,0,0,1 @ F,0,0,1,0,0,0,1 @ F,0,0,1,0,0,0,1 @ F,0,0,1,0,0,0,1 @ F,0,0,1,0,0,0,1 @ F,0,0,1,0,0,0,1 @ F,0,0,1,0,0,0,1 | F,0,0,1,0,0,0,1 @ F,0,0,1,0,0,0,1 @ F,0,0,1,0,2.3900972,0,1 @ F,0,0,1,0,2.0428419,0,1 @ F,0,0,1,0,0,0,1 | F,0,0,1,0,2.4511661,0,1 @ F,0,0,1,0,2.0929624,0,1 @ F,0,0,1,0,0,0,1 @ F,0,0,1,0,0,0,1 | F,0,0,1,0,2.3784274,0,1 @ F,0,0,1,0,0,0,1 @ F,0,0,1,0,0,0,1 @ F,0,0,1,0,2.3652021,0,1 | F,0,0,1,0,0,0,1 @ F,0,0,1,0,0,0,1 @ F,0,0,1,0,0,0,1 @ F,0,0,1,0,0,0,1 @ F,0,0,1,0,0,0,1 @ F,0,0,1,0,0,0,1 @ F,0,0,1,0,0,0,1 @ F,0,0,1,0,0,0,1 @ F,0,0,1,0,0,0,1 | F,0,0,1,0,2.5307775,0,1 @ F,0,0,1,0,2.3230643,0,1 @ F,0,0,1,0,0,0,1 @ F,0,0,1,0,0,0,1"
       radius="0"
       unit="px"
       method="auto"
       mode="F"
       chamfer_steps="1"
       flexible="false"
       use_knot_distance="true"
       apply_no_radius="true"
       apply_with_radius="true"
       only_selected="false"
       hide_knots="false" />
    <linearGradient
       id="linearGradient63"
       inkscape:collect="always">
      <stop
         style="stop-color:#ff8066;stop-opacity:1;"
         offset="0"
         id="stop63" />
      <stop
         style="stop-color:#ffcb66;stop-opacity:1;"
         offset="1"
         id="stop64" />
    </linearGradient>
    <linearGradient
       inkscape:collect="always"
       xlink:href="#linearGradient63"
       id="linearGradient64"
       x1="71.426018"
       y1="157.46782"
       x2="131.25296"
       y2="152.28276"
       gradientUnits="userSpaceOnUse"
       spreadMethod="pad" />
    <linearGradient
       inkscape:collect="always"
       xlink:href="#linearGradient63"
       id="linearGradient67"
       gradientUnits="userSpaceOnUse"
       x1="94.552895"
       y1="125.61865"
       x2="108.87906"
       y2="183.07779"
       spreadMethod="pad" />
  </defs>
  <g
     inkscape:label="Layer 1"
     inkscape:groupmode="layer"
     id="layer1">
    <g
       id="g15">
      <g
         id="g14"
         transform="matrix(0.2112377,0,0,0.2112377,-15.136258,-26.254104)"
         style="fill:url(#linearGradient64);fill-opacity:1">
        <path
           id="path12"
           style="fill:url(#linearGradient67);fill-opacity:1;stroke-width:0.129231"
           d="m 101.71602,124.7396 c -1.05295,0 -2.106798,0.40167 -2.91362,1.2085 l -25.486221,25.48622 c -1.613644,1.61365 -1.613644,4.21359 0,5.82724 L 98.8024,182.74778 c 1.61365,1.61364 4.2136,1.61364 5.82724,0 l 25.48622,-25.48622 c 1.61364,-1.61365 1.61364,-4.21359 0,-5.82724 L 104.62964,125.9481 c -0.80683,-0.80683 -1.86068,-1.2085 -2.91362,-1.2085 z m 0,6.38745 c 0.44689,0 0.89297,0.1713 1.23541,0.51374 l 7.65506,7.65506 a 0.99001068,0.99001068 112.5 0 1 -0.70005,1.69005 H 93.178337 a 0.8461725,0.8461725 67.500008 0 1 -0.598334,-1.44451 l 7.900607,-7.9006 c 0.34244,-0.34244 0.78851,-0.51374 1.23541,-0.51374 z m -13.293076,15.01323 -0.06346,16.69279 a 0.8715973,0.8715973 157.60891 0 1 -1.487903,0.613 l -7.862717,-7.86272 c -0.684873,-0.68487 -0.684873,-1.78595 0,-2.47082 l 7.690158,-7.69016 a 1.0098518,1.0098518 22.608893 0 1 1.723918,0.71791 z m 28.336916,-0.69105 7.66331,7.66331 c 0.68487,0.68487 0.68487,1.78595 0,2.47082 l -7.67266,7.67267 a 0.97969805,0.97969805 22.499985 0 1 -1.67245,-0.69275 v -16.41742 a 0.98517689,0.98517689 157.5 0 1 1.6818,-0.69663 z m -23.043451,-0.0232 h 15.999221 c 0.25519,0 0.48666,0.10258 0.65318,0.2691 0.16652,0.16651 0.26911,0.39798 0.2691,0.65318 v 15.99922 c 0,0.51037 -0.4119,0.92228 -0.92228,0.92228 H 93.716409 c -0.510382,0 -0.922284,-0.4119 -0.922279,-0.92228 v -15.99922 c 0,-0.51037 0.411905,-0.92228 0.922279,-0.92228 z m -0.04769,22.28638 h 16.302322 a 0.96224401,0.96224401 67.500015 0 1 0.6804,1.64265 l -7.70001,7.70001 c -0.68487,0.68488 -1.78594,0.68488 -2.47082,0 l -7.553138,-7.55313 a 1.0482816,1.0482816 112.49999 0 1 0.741246,-1.78953 z"
           inkscape:path-effect="#path-effect70"
           inkscape:original-d="m 101.71602,124.7396 c -1.05295,0 -2.106798,0.40167 -2.91362,1.2085 l -25.486221,25.48622 c -1.613644,1.61365 -1.613644,4.21359 0,5.82724 L 98.8024,182.74778 c 1.61365,1.61364 4.2136,1.61364 5.82724,0 l 25.48622,-25.48622 c 1.61364,-1.61365 1.61364,-4.21359 0,-5.82724 L 104.62964,125.9481 c -0.80683,-0.80683 -1.86068,-1.2085 -2.91362,-1.2085 z m 0,6.38745 c 0.44689,0 0.89297,0.1713 1.23541,0.51374 l 9.34511,9.34511 H 91.135495 l 9.345115,-9.34511 c 0.34244,-0.34244 0.78851,-0.51374 1.23541,-0.51374 z m -13.283758,12.56208 -0.08073,21.23689 -9.342664,-9.34267 c -0.684873,-0.68487 -0.684873,-1.78595 0,-2.47082 z m 26.645798,0.0783 9.34511,9.34511 c 0.68487,0.68487 0.68487,1.78595 0,2.47082 l -9.34511,9.34512 z m -21.361651,1.65863 h 15.999221 c 0.25519,0 0.48666,0.10258 0.65318,0.2691 0.16652,0.16651 0.26911,0.39798 0.2691,0.65318 v 15.99922 c 0,0.51037 -0.4119,0.92228 -0.92228,0.92228 H 93.716409 c -0.510382,0 -0.922284,-0.4119 -0.922279,-0.92228 v -15.99922 c 0,-0.51037 0.411905,-0.92228 0.922279,-0.92228 z m -2.578468,22.28638 H 112.2941 l -9.34267,9.34266 c -0.68487,0.68488 -1.78594,0.68488 -2.47082,0 z"
           transform="matrix(0.94499176,-0.94499176,0.94499176,0.94499176,-140.26292,104.61147)" />
      </g>
    </g>
  </g>
</svg>
