<?xml version="1.0" encoding="UTF-8" standalone="no"?>
<!-- Created with Inkscape (http://www.inkscape.org/) -->

<svg
   width="48"
   height="48"
   viewBox="0 0 12.7 12.7"
   version="1.1"
   id="svg1"
   xmlns:inkscape="http://www.inkscape.org/namespaces/inkscape"
   xmlns:sodipodi="http://sodipodi.sourceforge.net/DTD/sodipodi-0.dtd"
   xmlns="http://www.w3.org/2000/svg"
   xmlns:svg="http://www.w3.org/2000/svg">
  <sodipodi:namedview
     id="namedview1"
     pagecolor="#505050"
     bordercolor="#eeeeee"
     borderopacity="1"
     inkscape:showpageshadow="0"
     inkscape:pageopacity="0"
     inkscape:pagecheckerboard="0"
     inkscape:deskcolor="#505050"
     inkscape:document-units="mm">
    <inkscape:page
       x="0"
       y="0"
       width="12.7"
       height="12.7"
       id="page2"
       margin="0"
       bleed="0" />
  </sodipodi:namedview>
  <defs
     id="defs1" />
  <g
     inkscape:label="Layer 1"
     inkscape:groupmode="layer"
     id="layer1">
    <g
       id="g4">
      <path
         id="path4"
         style="fill-opacity:1;stroke-width:0.134526"
         d="M 6.3575172,0.11248844 C 5.3485722,0.1124736 4.0089286,0.78275138 3.1588255,1.3452988 L 2.1653757,0.31217334 A 0.27917812,0.27917812 0 0 0 1.6850725,0.50555974 V 3.2985655 A 0.55015743,0.55015743 0 0 0 2.2352662,3.8485011 H 4.9302713 A 0.27051316,0.27051316 0 0 0 5.1252308,3.3905348 L 4.2597383,2.4903486 C 4.933628,2.0746507 5.5241796,1.6907883 6.3575172,1.6908181 c 2.5772718,3e-5 4.6665158,2.0893851 4.6664018,4.6666611 3e-6,0.038806 -3.52e-4,0.077462 -0.0014,0.1161184 -0.0078,0.3110721 0.170458,0.6877404 0.440109,0.8434107 0.526873,0.3041915 1.08383,0.070149 1.125086,-0.5359953 0.0095,-0.1408944 0.01448,-0.2821468 0.01448,-0.4235486 C 12.602362,2.9085092 9.8064875,0.11251836 6.3575366,0.1124736 Z M 0.9396565,4.9945955 c -0.41020693,0.021194 -0.78402757,0.4013697 -0.81793329,1.0220956 -0.006114,0.1134321 -0.009249,0.2269981 -0.009249,0.3407881 4.93e-5,3.4489554 2.79604019,6.2448118 6.24498949,6.2447218 1.3535439,-3e-5 2.659761,-0.439489 3.7297013,-1.236227 l 0.913312,0.950095 A 0.27917812,0.27917812 0 0 0 11.48078,12.122682 V 9.3296775 A 0.55015743,0.55015743 0 0 0 10.930586,8.779742 H 8.2358429 A 0.27051316,0.27051316 0 0 0 8.0406221,9.2377231 L 8.9975497,10.233013 C 8.918192,10.268386 8.8411093,10.308837 8.768171,10.352862 8.0455414,10.788889 7.2128845,11.023901 6.3574591,11.023916 3.7801887,11.024036 1.6908276,8.9348003 1.6907948,6.3575241 1.6907753,6.1937196 1.6994514,6.0301537 1.7165409,5.8674985 1.7465256,5.5831576 1.598527,5.2404143 1.3507963,5.0973857 1.2171855,5.0202222 1.0763329,4.9875359 0.9395953,4.9947 Z" />
    </g>
  </g>
</svg>
