<?xml version="1.0" encoding="UTF-8" standalone="no"?>
<!-- Created with Inkscape (http://www.inkscape.org/) -->

<svg
   width="48"
   height="48"
   viewBox="0 0 12.7 12.7"
   version="1.1"
   id="svg1"
   xmlns:inkscape="http://www.inkscape.org/namespaces/inkscape"
   xmlns:sodipodi="http://sodipodi.sourceforge.net/DTD/sodipodi-0.dtd"
   xmlns="http://www.w3.org/2000/svg"
   xmlns:svg="http://www.w3.org/2000/svg">
  <sodipodi:namedview
     id="namedview1"
     pagecolor="#505050"
     bordercolor="#eeeeee"
     borderopacity="1"
     inkscape:showpageshadow="0"
     inkscape:pageopacity="0"
     inkscape:pagecheckerboard="0"
     inkscape:deskcolor="#505050"
     inkscape:document-units="mm">
    <inkscape:page
       x="0"
       y="0"
       width="12.7"
       height="12.7"
       id="page2"
       margin="0"
       bleed="0" />
  </sodipodi:namedview>
  <defs
     id="defs1">
    <inkscape:path-effect
       effect="fillet_chamfer"
       id="path-effect2"
       is_visible="true"
       lpeversion="1"
       nodesatellites_param="F,0,0,1,0,0,0,1 @ F,0,0,1,0,0,0,1 @ F,0,0,1,0,6.9174248,0,1 @ F,0,0,1,0,1.3116814,0,1 @ F,0,0,1,0,0,0,1 @ F,0,0,1,0,0,0,1 @ F,0,0,1,0,1.7283161,0,1 @ F,0,0,1,0,6.554297,0,1 @ F,0,0,1,0,0,0,1"
       radius="0"
       unit="px"
       method="auto"
       mode="F"
       chamfer_steps="1"
       flexible="false"
       use_knot_distance="true"
       apply_no_radius="true"
       apply_with_radius="true"
       only_selected="false"
       hide_knots="false" />
  </defs>
  <g
     inkscape:label="Layer 1"
     inkscape:groupmode="layer"
     id="layer1">
    <path
       d="m 80.078316,92.90544 c -1.098847,1.32e-4 -2.152635,0.436778 -2.929537,1.21388 l -15.231961,15.23196 a 2.8652913,2.8652913 67.499999 0 0 2.026067,4.89136 h 0.247379 a 3.1666787,3.1666787 157.5 0 0 2.23918,-0.9275 l 11.796789,-11.79679 c 1.023045,-1.02296 2.681638,-1.02296 3.704683,0 l 11.501692,11.50216 a 4.1724038,4.1724038 22.500584 0 0 2.950395,1.22213 l 0.19439,0 a 2.7148787,2.7148787 112.5 0 0 1.919709,-4.63459 L 83.00837,94.11932 c -0.777029,-0.777229 -1.831028,-1.213886 -2.930054,-1.21388 z"
       style="stroke-width:0.264583"
       id="path1"
       inkscape:path-effect="#path-effect2"
       inkscape:original-d="m 80.078316,92.90544 a 4.1431604,4.1431604 0 0 0 -2.929537,1.21388 L 57.02546,114.24264 h 8.476485 l 12.724288,-12.72429 a 2.6197164,2.6197164 0 0 1 3.704683,0 l 12.723771,12.72429 h 8.477003 L 83.00837,94.11932 a 4.1431604,4.1431604 0 0 0 -2.930054,-1.21388 z"
       transform="matrix(-0.32604917,0,0,-0.32604917,32.494231,40.331234)" />
  </g>
</svg>
