<?xml version="1.0" encoding="UTF-8" standalone="no"?>
<!-- Created with Inkscape (http://www.inkscape.org/) -->

<svg
   width="48"
   height="48"
   viewBox="0 0 12.7 12.7"
   version="1.1"
   id="svg1"
   inkscape:export-filename="bitmap4.svg"
   inkscape:export-xdpi="96"
   inkscape:export-ydpi="96"
   sodipodi:docname="bitmap4.svg"
   inkscape:version="1.4.2 (f4327f4, 2025-05-13)"
   xmlns:inkscape="http://www.inkscape.org/namespaces/inkscape"
   xmlns:sodipodi="http://sodipodi.sourceforge.net/DTD/sodipodi-0.dtd"
   xmlns="http://www.w3.org/2000/svg"
   xmlns:svg="http://www.w3.org/2000/svg">
  <sodipodi:namedview
     id="namedview1"
     pagecolor="#505050"
     bordercolor="#eeeeee"
     borderopacity="1"
     inkscape:showpageshadow="0"
     inkscape:pageopacity="0"
     inkscape:pagecheckerboard="0"
     inkscape:deskcolor="#505050"
     inkscape:document-units="mm"
     inkscape:zoom="8.4062501"
     inkscape:cx="8.4460965"
     inkscape:cy="6.4832713"
     inkscape:window-width="1920"
     inkscape:window-height="1009"
     inkscape:window-x="1016"
     inkscape:window-y="-8"
     inkscape:window-maximized="1"
     inkscape:current-layer="layer1">
    <inkscape:page
       x="0"
       y="0"
       width="12.7"
       height="12.7"
       id="page2"
       margin="0"
       bleed="0" />
  </sodipodi:namedview>
  <defs
     id="defs1" />
  <g
     inkscape:label="Layer 1"
     inkscape:groupmode="layer"
     id="layer1">
    <path
       id="path4"
       style="stroke-width:0.0473788;"
       d="m 6.3499543,0.14704803 c -0.2274217,0 -0.4548035,0.0871544 -0.6290651,0.26141719 L 0.4084413,5.720923 c -0.34852435,0.3485252 -0.34852435,0.9097001 0,1.2582262 l 5.3124479,5.3124568 c 0.3039257,0.303927 0.7695728,0.342739 1.1148818,0.116597 L 4.0233006,9.5956337 C 3.8248953,9.3972276 3.7967741,9.0949195 3.9389996,8.8670891 3.9785701,8.8037033 4.066222,8.7183052 4.1191686,8.665358 L 2.2390978,6.7852844 c -0.2411409,-0.2411418 -0.2411409,-0.6293549 0,-0.8704966 L 5.9147536,2.2391249 C 6.0353232,2.1185541 6.192604,2.0583076 6.3499543,2.0583076 c 0.1573504,0 0.3147251,0.060247 0.4352945,0.1808173 l 3.6756522,3.6756629 c 0.241141,0.2411417 0.241141,0.6293548 0,0.8704966 l -0.266598,0.2665988 1.012261,1.012262 1.084995,-1.084996 c 0.348527,-0.3485261 0.348521,-0.909701 0,-1.2582262 L 6.9791112,0.40846522 C 6.8048511,0.23420272 6.5773773,0.14704803 6.3499543,0.14704803 Z M 7.9635211,5.8811969 c -0.1208898,0 -0.2418001,0.046264 -0.3344286,0.1388984 L 4.8051443,8.8440479 c -0.1852634,0.185263 -0.1852634,0.4835932 0,0.6688572 l 2.8239482,2.8238599 c 0.1852621,0.185263 0.483595,0.185263 0.6688523,0 L 11.121802,9.5129051 c 0.185262,-0.185264 0.185262,-0.4835942 0,-0.6688572 L 8.2979448,6.0200953 C 8.2053161,5.9274628 8.0844108,5.8811969 7.9635211,5.8811969 Z m 0.4543528,1.3760256 a 0.08880638,0.08880655 0 0 1 0.066905,0.025907 L 9.8905995,8.6889517 A 0.08459929,0.08459945 0 0 1 9.8307275,8.8334021 H 8.5471464 A 0.21397007,0.21397048 0 0 1 8.3332014,8.6193641 V 7.345962 A 0.08880638,0.08880655 0 0 1 8.4178724,7.257216 Z M 7.4948211,7.267955 a 0.08113969,0.08113985 0 0 1 0.077455,0.081062 V 8.630285 A 0.20305267,0.20305306 0 0 1 7.3691547,8.8334067 H 6.1515554 A 0.10749356,0.10749377 0 0 1 6.07549,8.6499055 L 7.4337436,7.2916466 a 0.08113969,0.08113985 0 0 1 0.061077,-0.02369 z M 6.1733015,9.5943351 h 1.1941871 a 0.20473231,0.20473271 0 0 1 0.2047866,0.2046928 v 1.2143631 a 0.07886046,0.07886062 0 0 1 -0.1346457,0.05571 L 6.111672,9.7431383 A 0.08718573,0.0871859 0 0 1 6.173301,9.5943379 Z m 2.3711619,0 h 1.21973 a 0.08284618,0.08284634 0 0 1 0.058571,0.1413975 L 8.4616452,11.096859 a 0.0752545,0.07525464 0 0 1 -0.1284447,-0.0532 V 9.8056003 a 0.21127067,0.21127107 0 0 1 0.211261,-0.2112624 z" />
  </g>
</svg>
