<?xml version="1.0" encoding="UTF-8" standalone="no"?>
<!-- Created with Inkscape (http://www.inkscape.org/) -->

<svg
   width="48"
   height="48"
   viewBox="0 0 12.7 12.7"
   version="1.1"
   id="svg1"
   inkscape:version="1.4.2 (f4327f4, 2025-05-13)"
   sodipodi:docname="drawing-1.svg"
   inkscape:export-filename="drawing-3.svg"
   inkscape:export-xdpi="96"
   inkscape:export-ydpi="96"
   xmlns:inkscape="http://www.inkscape.org/namespaces/inkscape"
   xmlns:sodipodi="http://sodipodi.sourceforge.net/DTD/sodipodi-0.dtd"
   xmlns="http://www.w3.org/2000/svg"
   xmlns:svg="http://www.w3.org/2000/svg">
  <sodipodi:namedview
     id="namedview1"
     pagecolor="#505050"
     bordercolor="#eeeeee"
     borderopacity="1"
     inkscape:showpageshadow="0"
     inkscape:pageopacity="0"
     inkscape:pagecheckerboard="0"
     inkscape:deskcolor="#505050"
     inkscape:document-units="mm"
     inkscape:zoom="11.313709"
     inkscape:cx="0.8396893"
     inkscape:cy="25.058096"
     inkscape:window-width="2560"
     inkscape:window-height="1351"
     inkscape:window-x="-9"
     inkscape:window-y="-9"
     inkscape:window-maximized="1"
     inkscape:current-layer="layer1">
    <inkscape:page
       x="0"
       y="0"
       width="12.7"
       height="12.7"
       id="page2"
       margin="0"
       bleed="0" />
  </sodipodi:namedview>
  <defs
     id="defs1">
    <linearGradient
       id="swatch19"
       inkscape:swatch="solid">
      <stop
         style="stop-color:#ffffff;stop-opacity:1;"
         offset="0"
         id="stop19" />
    </linearGradient>
  </defs>
  <g
     inkscape:label="Layer 1"
     inkscape:groupmode="layer"
     id="layer1">
    <path
       id="path38"
       style="baseline-shift:baseline;display:inline;overflow:visible;vector-effect:none;stroke-width:0.082983;enable-background:accumulate;stop-color:#000000"
       d="M 6.3481885,0.31485639 A 1.3345361,1.3345361 0 0 0 5.6809561,0.49350973 L 3.8774193,1.5347724 A 1.1263107,1.1263108 0 0 0 3.3141458,2.51026 v 2.3584484 a 0.85638671,0.85638673 0 0 0 0.4283778,0.741649 l 1.5016926,0.8670687 0.6984485,0.4032942 a 0.81074876,0.81074878 0 0 0 0.8107694,0 L 8.9647236,5.6042258 A 0.83483877,0.83483878 0 0 0 9.3819542,4.8812505 V 2.4979968 A 1.1050549,1.1050549 0 0 0 8.8295486,1.5409039 L 7.015422,0.49350973 A 1.3345361,1.3345361 0 0 0 6.3481885,0.31485639 Z m 0,0.50836802 a 0.74064343,0.74064344 0 0 1 0.3701283,0.0992209 L 8.3629879,1.8720125 a 0.15218344,0.15218344 0 0 1 0,0.2636604 L 6.7645824,3.0584828 a 0.86310875,0.86310877 0 0 1 -0.8631672,0 l -1.52148,-0.8784951 a 0.19345265,0.19345266 0 0 1 0,-0.3350099 L 5.977782,0.92244557 A 0.74064343,0.74064344 0 0 1 6.3481885,0.82322441 Z M 8.6692908,2.5941516 a 0.19982161,0.19982162 0 0 1 0.192867,0.1998355 V 4.6844812 A 0.6554821,0.65548212 0 0 1 8.534394,5.2522144 L 6.8593435,6.2193399 A 0.1776713,0.17767131 0 0 1 6.592897,6.065213 V 4.1476841 A 0.6750648,0.67506482 0 0 1 6.930415,3.5629492 L 8.5625445,2.6209079 a 0.19982161,0.19982162 0 0 1 0.1067474,-0.026756 z m -4.6645,5.578e-4 a 0.17660976,0.17660976 0 0 1 0.094207,0.02369 L 5.7481287,3.5704746 A 0.64973139,0.6497314 0 0 1 6.0728259,4.1331908 V 6.0440309 A 0.1797949,0.17979491 0 0 1 5.8033127,6.1998305 L 4.1756428,5.260297 A 0.68299767,0.68299768 0 0 1 3.8342192,4.6685941 V 2.7714117 A 0.17660976,0.17660976 0 0 1 4.0047908,2.5947094 Z M 3.1332626,5.7636486 A 1.3345361,1.3345361 0 0 0 2.4660291,5.9425808 L 0.66249342,6.9835644 A 1.1263107,1.1263108 0 0 0 0.09921875,7.9590513 v 2.3587257 a 0.85638671,0.85638673 0 0 0 0.42837785,0.741648 l 1.5016926,0.867069 0.6984496,0.403295 a 0.81074876,0.81074878 0 0 0 0.8107683,0 L 5.7497976,11.053015 A 0.83483877,0.83483878 0 0 0 6.1670272,10.330041 V 7.946788 A 1.1050549,1.1050549 0 0 0 5.6146227,6.9896961 L 3.800495,5.9425808 A 1.3345361,1.3345361 0 0 0 3.1332626,5.7636486 Z m 6.4334759,0 A 1.3345361,1.3345361 0 0 0 8.899505,5.9425808 L 7.0959693,6.9838433 A 1.1263107,1.1263108 0 0 0 6.532974,7.9593302 v 2.3584468 a 0.85638671,0.85638673 0 0 0 0.4280996,0.741648 l 1.5016926,0.867069 0.6987278,0.403295 a 0.81074876,0.81074878 0 0 0 0.8104902,0 l 2.2112888,-1.276495 a 0.83483877,0.83483878 0 0 0 0.417508,-0.722975 V 7.9470669 A 1.1050549,1.1050549 0 0 0 12.048099,6.9899748 L 10.233972,5.9425808 A 1.3345361,1.3345361 0 0 0 9.5667385,5.7636486 Z M 3.1332626,6.2722955 a 0.74064343,0.74064344 0 0 1 0.3701272,0.099221 l 1.6446711,0.9492882 a 0.15218344,0.15218344 0 0 1 0,0.2636603 L 3.5496554,8.5075547 a 0.86310875,0.86310877 0 0 1 -0.863166,0 L 1.1650082,7.6290586 a 0.19345265,0.19345266 0 0 1 0,-0.3350107 l 1.597848,-0.922532 a 0.74064343,0.74064344 0 0 1 0.3704064,-0.09922 z m 6.4334759,0 a 0.74064343,0.74064344 0 0 1 0.3704065,0.099221 l 1.644671,0.9495671 a 0.15218344,0.15218344 0 0 1 0,0.2633814 L 9.9831322,8.5075547 a 0.86310875,0.86310877 0 0 1 -0.863167,0 L 7.5984841,7.6290592 a 0.19345265,0.19345266 0 0 1 0,-0.3350107 L 9.196332,6.3715164 A 0.74064343,0.74064344 0 0 1 9.5667385,6.2722955 Z M 5.4543637,8.0432218 A 0.19982161,0.19982162 0 0 1 5.6472319,8.2427794 V 10.133548 A 0.6554821,0.65548212 0 0 1 5.319468,10.701004 L 3.6444177,11.668129 A 0.1776713,0.17767131 0 0 1 3.37797,11.514281 V 9.5967548 A 0.6750648,0.67506482 0 0 1 3.715489,9.0120203 L 5.3476175,8.0697001 a 0.19982161,0.19982162 0 0 1 0.1067474,-0.026478 z m 6.4334773,0 a 0.19982161,0.19982162 0 0 1 0.192866,0.1998356 v 1.8904906 a 0.6554821,0.65548212 0 0 1 -0.327763,0.567736 l -1.674771,0.966845 A 0.1776713,0.17767131 0 0 1 9.8114459,11.514281 V 9.5967548 A 0.6750648,0.67506482 0 0 1 10.148965,9.0120203 L 11.781094,8.069978 A 0.19982161,0.19982162 0 0 1 11.887842,8.043222 Z M 0.78986375,8.0437795 a 0.17660976,0.17660976 0 0 1 0.0942071,0.023411 L 2.5332018,9.0192654 a 0.64973139,0.6497314 0 0 1 0.3246983,0.5627165 v 1.9111161 a 0.1797949,0.17979491 0 0 1 -0.2695132,0.1558 L 0.96071696,10.709086 A 0.68299767,0.68299768 0 0 1 0.61929334,10.117663 V 8.2202038 A 0.17660976,0.17660976 0 0 1 0.78986375,8.0437795 Z m 6.43347595,0 a 0.17660976,0.17660976 0 0 1 0.094483,0.023691 L 8.9666744,9.0195453 A 0.64973139,0.6497314 0 0 1 9.291652,9.5819842 V 11.4931 A 0.1797949,0.17979491 0 0 1 9.0218592,11.648898 L 7.3941894,10.709087 A 0.68299767,0.68299768 0 0 1 7.0527692,10.117663 V 8.2204818 A 0.17660976,0.17660976 0 0 1 7.2233397,8.0437795 Z" />
  </g>
</svg>
