<?xml version="1.0" encoding="UTF-8" standalone="no"?>
<!-- Created with Inkscape (http://www.inkscape.org/) -->

<svg
   width="48"
   height="48"
   viewBox="0 0 12.7 12.7"
   version="1.1"
   id="svg1"
   sodipodi:docname="component.svg"
   inkscape:version="1.4.2 (f4327f4, 2025-05-13)"
   xmlns:inkscape="http://www.inkscape.org/namespaces/inkscape"
   xmlns:sodipodi="http://sodipodi.sourceforge.net/DTD/sodipodi-0.dtd"
   xmlns="http://www.w3.org/2000/svg"
   xmlns:svg="http://www.w3.org/2000/svg">
  <sodipodi:namedview
     id="namedview1"
     pagecolor="#505050"
     bordercolor="#eeeeee"
     borderopacity="1"
     inkscape:showpageshadow="0"
     inkscape:pageopacity="0"
     inkscape:pagecheckerboard="0"
     inkscape:deskcolor="#505050"
     inkscape:document-units="mm"
     inkscape:zoom="16.8125"
     inkscape:cx="23.97026"
     inkscape:cy="24"
     inkscape:window-width="1920"
     inkscape:window-height="1009"
     inkscape:window-x="1016"
     inkscape:window-y="-8"
     inkscape:window-maximized="1"
     inkscape:current-layer="layer1">
    <inkscape:page
       x="0"
       y="0"
       width="12.7"
       height="12.7"
       id="page2"
       margin="0"
       bleed="0" />
  </sodipodi:namedview>
  <defs
     id="defs1" />
  <g
     inkscape:label="Layer 1"
     inkscape:groupmode="layer"
     id="layer1">
    <path
       id="path2"
       style="stroke-width:0.0225184"
       d="m 6.3763304,0.11545478 c -0.1080903,0 -0.2162423,0.0413585 -0.2990663,0.1241822 L 3.5524722,2.7644289 c -0.1656473,0.1656479 -0.1656473,0.4324845 0,0.5981318 l 2.5247919,2.5247927 c 0.1656481,0.1656463 0.4324844,0.1656472 0.5981317,0 L 9.2001885,3.3625607 c 0.1656491,-0.1656477 0.1656455,-0.4324844 0,-0.5981318 L 6.6753958,0.23963698 C 6.5925726,0.15681328 6.4844197,0.11545478 6.3763304,0.11545478 Z m 0,0.90821972 c 0.074785,0 0.1496648,0.028668 0.2069704,0.085973 l 1.7468778,1.7471229 c 0.1146077,0.1146097 0.1146077,0.2990855 0,0.4136956 L 6.5833008,5.0173428 c -0.1146095,0.1146103 -0.2990863,0.1146094 -0.4136958,0 L 4.4224822,3.2704652 c -0.1146099,-0.11461 -0.1146099,-0.2990856 0,-0.4136956 L 6.169605,1.1096467 C 6.22691,1.0523417 6.3015447,1.0236737 6.3763304,1.0236745 Z m -3.333813,2.4150611 c -0.1080899,0 -0.2162423,0.041359 -0.2990663,0.1241822 L 0.21865932,6.0879552 c -0.16564736,0.1656473 -0.16564736,0.4322386 0,0.5978858 L 2.7434511,9.2108785 c 0.1656479,0.1656474 0.432485,0.1656474 0.598132,0 L 5.8663756,6.685841 c 0.1656491,-0.1656472 0.1656455,-0.4322385 0,-0.5978858 L 3.3415831,3.5629178 C 3.2587596,3.4800941 3.1506067,3.4387356 3.0425174,3.4387356 Z m 6.6149652,0 c -0.1080902,0 -0.2162422,0.041359 -0.2990664,0.1241822 L 6.8336245,6.0879552 c -0.1656481,0.1656473 -0.1656481,0.4322386 0,0.5978858 l 2.5247917,2.5250375 c 0.1656474,0.1656474 0.4324846,0.1656474 0.5981323,0 L 12.48134,6.685841 c 0.16565,-0.1656472 0.165646,-0.4322385 0,-0.5978858 L 9.9565485,3.5629178 C 9.8737249,3.4800941 9.765572,3.4387356 9.6574826,3.4387356 Z M 3.0425174,4.3471999 c 0.074785,0 0.1494208,0.028425 0.2067252,0.08573 l 1.7471224,1.747123 c 0.1146086,0.1146103 0.1146086,0.2990854 0,0.4136957 l -1.7471224,1.746878 c -0.1146089,0.1146095 -0.2990857,0.1146095 -0.4136956,0 L 1.0886692,6.593746 c -0.11461031,-0.1146103 -0.11461031,-0.2990854 0,-0.4136957 L 2.835547,4.4329274 c 0.057305,-0.057305 0.1321846,-0.08573 0.2069704,-0.08573 z m 6.6149652,0 c 0.074784,0 0.1496647,0.028425 0.2069704,0.08573 l 1.746877,1.747123 c 0.114609,0.1146094 0.114609,0.2990854 0,0.4136957 l -1.746877,1.746878 c -0.1146094,0.1146095 -0.2990863,0.1146095 -0.4136957,0 L 7.7036342,6.5937487 c -0.1146103,-0.1146103 -0.1146103,-0.2990854 0,-0.4136957 L 9.4507573,4.4329274 c 0.057305,-0.057305 0.1319397,-0.08573 0.2067253,-0.08573 z M 6.3763304,6.7093556 c -0.1080903,0 -0.2162423,0.041359 -0.2990663,0.1241816 L 3.5524722,9.3585748 c -0.1656473,0.1656482 -0.1656473,0.4322394 0,0.597887 l 2.5247919,2.5250372 c 0.1656481,0.165647 0.4324844,0.165647 0.5981317,0 L 9.2001885,9.9564618 c 0.1656491,-0.1656476 0.1656455,-0.4322397 0,-0.597887 L 6.6753958,6.8335372 C 6.5925699,6.7507113 6.4844197,6.7093556 6.3763304,6.7093556 Z m 0,0.9084648 c 0.074785,0 0.1496657,0.028416 0.2069704,0.08573 l 1.7468778,1.7471229 c 0.1146077,0.1146103 0.1146077,0.2990854 0,0.4136957 l -1.7468778,1.746879 c -0.1146095,0.11461 -0.2990863,0.114609 -0.4136958,0 L 4.4224822,9.8643656 c -0.1146104,-0.1146103 -0.1146104,-0.2990854 0,-0.4136957 L 6.169605,7.7035469 c 0.057305,-0.057305 0.1319397,-0.08573 0.2067254,-0.08573 z" />
  </g>
</svg>
