<?xml version="1.0" encoding="UTF-8" standalone="no"?>
<!-- Created with Inkscape (http://www.inkscape.org/) -->

<svg
   width="48"
   height="48"
   viewBox="0 0 12.7 12.7"
   version="1.1"
   id="svg1"
   inkscape:version="1.4.2 (f4327f4, 2025-05-13)"
   sodipodi:docname="drawing-1.svg"
   xmlns:inkscape="http://www.inkscape.org/namespaces/inkscape"
   xmlns:sodipodi="http://sodipodi.sourceforge.net/DTD/sodipodi-0.dtd"
   xmlns="http://www.w3.org/2000/svg"
   xmlns:svg="http://www.w3.org/2000/svg">
  <sodipodi:namedview
     id="namedview1"
     pagecolor="#505050"
     bordercolor="#eeeeee"
     borderopacity="1"
     inkscape:showpageshadow="0"
     inkscape:pageopacity="0"
     inkscape:pagecheckerboard="0"
     inkscape:deskcolor="#505050"
     inkscape:document-units="mm"
     inkscape:zoom="11.313709"
     inkscape:cx="0.8396893"
     inkscape:cy="25.058096"
     inkscape:window-width="2560"
     inkscape:window-height="1351"
     inkscape:window-x="-9"
     inkscape:window-y="-9"
     inkscape:window-maximized="1"
     inkscape:current-layer="layer1">
    <inkscape:page
       x="0"
       y="0"
       width="12.7"
       height="12.7"
       id="page2"
       margin="0"
       bleed="0" />
  </sodipodi:namedview>
  <defs
     id="defs1">
    <linearGradient
       id="swatch19"
       inkscape:swatch="solid">
      <stop
         style="stop-color:#ffffff;stop-opacity:1;"
         offset="0"
         id="stop19" />
    </linearGradient>
  </defs>
  <g
     inkscape:label="Layer 1"
     inkscape:groupmode="layer"
     id="layer1">
    <path
       id="path38"
       style="baseline-shift:baseline;display:inline;overflow:visible;vector-effect:none;stroke-width:0.113455;enable-background:accumulate;stop-color:#000000"
       d="m 0.74449629,0.11575529 c -0.34734573,0 -0.62929034,0.28177647 -0.62874024,0.62912076 0.001176,0.73683605 0.005093,1.47366855 0.008386,2.21049885 7.3735e-4,0.1678395 0.13738167,0.3037005 0.3052247,0.3037005 H 0.55015888 A 0.28633869,0.28633869 0 0 0 0.8367123,2.9729036 V 1.1598452 A 0.33280826,0.33280826 0 0 1 1.1693729,0.82680298 H 3.0030084 A 0.25648392,0.25648392 0 0 0 3.2594586,0.57035299 V 0.40878646 A 0.29281449,0.29281449 0 0 0 2.9664274,0.11575529 Z m 11.21101171,0 c -0.736836,0.001166 -1.473667,0.005113 -2.2104991,0.008386 -0.1678392,7.4482e-4 -0.3040817,0.13738136 -0.3040817,0.30522419 v 0.1207943 A 0.28633869,0.28633869 0 0 0 9.7274802,0.8367138 H 11.540538 A 0.33280826,0.33280826 0 0 1 11.8732,1.1693736 v 1.8336358 a 0.25648392,0.25648392 0 0 0 0.256451,0.2564499 h 0.161947 a 0.29281449,0.29281449 0 0 0 0.29265,-0.2930312 V 0.74449746 c 0,-0.3473443 -0.281395,-0.62928971 -0.62874,-0.62873951 z M 6.357051,1.8400273 A 1.8245855,1.8245855 0 0 0 5.4448059,2.0842833 L 2.9793825,3.5079046 A 1.5398986,1.5398986 0 0 0 2.2092706,4.8415958 v 3.2244853 a 1.1708569,1.1708569 0 0 0 0.5853002,1.0139866 l 2.0535033,1.1858413 0.9549235,0.551387 a 1.1084605,1.1084605 0 0 0 1.108488,-3.82e-4 L 9.9343943,9.0716838 A 1.1413965,1.1413965 0 0 0 10.505214,8.0832274 V 4.8248295 A 1.5108376,1.5108376 0 0 0 9.7495813,3.5162878 L 7.2692962,2.0842833 A 1.8245855,1.8245855 0 0 0 6.357051,1.8400273 Z m 0,0.6950438 a 1.0126121,1.0126121 0 0 1 0.506422,0.1356557 l 2.2486042,1.2982538 a 0.20806609,0.20806609 0 0 1 0,0.3604779 L 6.9263469,5.5911309 a 1.1800473,1.1800473 0 0 1 -1.1801265,0 L 3.6660421,4.3904267 a 0.2644896,0.2644896 0 0 1 0,-0.4584087 L 5.8510103,2.6707268 A 1.0126121,1.0126121 0 0 1 6.357051,2.5350711 Z M 9.5308566,4.9566743 A 0.27319728,0.27319728 0 0 1 9.7941651,5.2295094 V 7.8145845 A 0.89617896,0.89617896 0 0 1 9.346045,8.5904124 L 7.0562869,9.9126733 A 0.24291323,0.24291323 0 0 1 6.6919982,9.7023298 V 7.0802929 A 0.92295257,0.92295257 0 0 1 7.1534551,6.2812212 L 9.3845314,4.9928743 a 0.27319728,0.27319728 0 0 1 0.1463252,-0.0362 z m -6.3777143,7.595e-4 a 0.2414619,0.2414619 0 0 1 0.129179,0.032008 L 5.5366406,6.2911252 A 0.88831659,0.88831659 0 0 1 5.9809502,7.0604753 V 9.6733675 A 0.24581665,0.24581665 0 0 1 5.6120891,9.886377 L 3.3867292,8.6014594 A 0.9337984,0.9337984 0 0 1 2.9199374,7.7928649 V 5.1986441 A 0.2414619,0.2414619 0 0 1 3.1531423,4.9574367 Z M 0.40878652,9.4409235 A 0.29281449,0.29281449 0 0 0 0.11575605,9.7335738 v 2.2219292 c 0,0.347347 0.28177648,0.629291 0.62912139,0.628741 0.73683506,-0.0013 1.47366806,-0.0051 2.21049796,-0.0083 0.1678401,-7.38e-4 0.3037013,-0.137381 0.3037013,-0.305225 V 12.149841 A 0.28633869,0.28633869 0 0 0 2.9729045,11.863669 H 1.1598458 A 0.33280826,0.33280826 0 0 1 0.82680396,11.531008 V 9.697377 A 0.25648392,0.25648392 0 0 0 0.57035375,9.4409266 Z m 11.74106048,0 a 0.28633869,0.28633869 0 0 0 -0.286174,0.286553 v 1.8130575 a 0.33280826,0.33280826 0 0 1 -0.332661,0.332661 H 9.6973776 a 0.25648392,0.25648392 0 0 0 -0.2564504,0.25645 v 0.16195 a 0.29281449,0.29281449 0 0 0 0.2926502,0.292649 h 2.2223116 c 0.347346,0 0.62891,-0.281397 0.628359,-0.628741 -0.0013,-0.736834 -0.0051,-1.473668 -0.0083,-2.2104977 C 12.575165,9.577166 12.438521,9.4409235 12.270677,9.4409235 Z" />
  </g>
</svg>
