<?xml version="1.0" encoding="UTF-8" standalone="no"?>
<svg
   width="16"
   height="16"
   viewBox="0 0 16 16"
   version="1.1"
   id="svg1"
   sodipodi:docname="svg.svg"
   inkscape:version="1.4.2 (f4327f4, 2025-05-13)"
   xmlns:inkscape="http://www.inkscape.org/namespaces/inkscape"
   xmlns:sodipodi="http://sodipodi.sourceforge.net/DTD/sodipodi-0.dtd"
   xmlns="http://www.w3.org/2000/svg"
   xmlns:svg="http://www.w3.org/2000/svg">
  <defs
     id="defs1" />
  <sodipodi:namedview
     id="namedview1"
     pagecolor="#505050"
     bordercolor="#eeeeee"
     borderopacity="1"
     inkscape:showpageshadow="0"
     inkscape:pageopacity="0"
     inkscape:pagecheckerboard="0"
     inkscape:deskcolor="#505050"
     inkscape:zoom="34.162096"
     inkscape:cx="6.2057082"
     inkscape:cy="8.5328487"
     inkscape:window-width="1920"
     inkscape:window-height="991"
     inkscape:window-x="-9"
     inkscape:window-y="-9"
     inkscape:window-maximized="1"
     inkscape:current-layer="svg1" />
  <path
     fill="none"
     stroke-linecap="round"
     stroke-linejoin="round"
     d="m4.54 10 6.92-4m-6.92 4a1.5 1.5 0 10-2.6 1.5 1.5 1.5 0 002.6-1.5M8 4v8m0-8a1.5 1.5 0 100-3 1.5 1.5 0 000 3M4.54 6l6.92 4M4.54 6a1.5 1.5 0 10-2.6-1.5A1.5 1.5 0 004.54 6M8 12a1.5 1.5 0 100 3 1.5 1.5 0 000-3m3.46-2a1.5 1.5 0 102.6 1.5 1.5 1.5 0 00-2.6-1.5m0-4a1.5 1.5 0 102.6-1.5 1.5 1.5 0 00-2.6 1.5"
     id="path1"
     style="opacity:1;stroke-opacity:1" />
</svg>
