<?xml version="1.0" encoding="UTF-8" standalone="no"?>
<!-- Created with Inkscape (http://www.inkscape.org/) -->

<svg
   width="48"
   height="48"
   viewBox="0 0 12.7 12.7"
   version="1.1"
   id="svg1"
   inkscape:version="1.4.2 (f4327f4, 2025-05-13)"
   sodipodi:docname="drawing-2.svg"
   xml:space="preserve"
   xmlns:inkscape="http://www.inkscape.org/namespaces/inkscape"
   xmlns:sodipodi="http://sodipodi.sourceforge.net/DTD/sodipodi-0.dtd"
   xmlns="http://www.w3.org/2000/svg"
   xmlns:svg="http://www.w3.org/2000/svg"><sodipodi:namedview
     id="namedview1"
     pagecolor="#505050"
     bordercolor="#eeeeee"
     borderopacity="1"
     inkscape:showpageshadow="0"
     inkscape:pageopacity="0"
     inkscape:pagecheckerboard="0"
     inkscape:deskcolor="#505050"
     inkscape:document-units="mm"
     inkscape:zoom="11.313709"
     inkscape:cx="0.8396893"
     inkscape:cy="25.058096"
     inkscape:window-width="2560"
     inkscape:window-height="1351"
     inkscape:window-x="-9"
     inkscape:window-y="-9"
     inkscape:window-maximized="1"
     inkscape:current-layer="layer1"><inkscape:page
       x="0"
       y="0"
       width="12.7"
       height="12.7"
       id="page2"
       margin="0"
       bleed="0" /></sodipodi:namedview><defs
     id="defs1"><linearGradient
       id="swatch19"
       inkscape:swatch="solid"><stop
         style="stop-color:#ffffff;stop-opacity:1;"
         offset="0"
         id="stop19" /></linearGradient></defs><g
     inkscape:label="Layer 1"
     inkscape:groupmode="layer"
     id="layer1"><path
       id="path38"
       style="baseline-shift:baseline;display:inline;overflow:visible;vector-effect:none;stroke-width:0.113455;enable-background:accumulate;stop-color:#000000"
       d="M 0.74465739 0.11575521 C 0.39731166 0.11575521 0.11520511 0.3973131 0.11575521 0.74465739 C 0.11693121 1.4814934 0.12073044 2.2185449 0.12402344 2.9553752 C 0.12476079 3.1232147 0.26158812 3.2592326 0.42943115 3.2592326 L 0.550354 3.2592326 A 0.28633869 0.28633869 0 0 0 0.83664144 2.9729451 L 0.83664144 1.1596191 A 0.33280826 0.33280826 0 0 1 1.1694377 0.82682292 L 3.0029175 0.82682292 A 0.25648392 0.25648392 0 0 0 3.2592326 0.57050781 L 3.2592326 0.40876058 A 0.29281449 0.29281449 0 0 0 2.9662272 0.11575521 L 0.74465739 0.11575521 z M 11.955343 0.11575521 C 11.218507 0.11692121 10.481974 0.12075044 9.7451416 0.12402344 C 9.5773024 0.12476826 9.4407674 0.26158832 9.4407674 0.42943115 L 9.4407674 0.550354 A 0.28633869 0.28633869 0 0 0 9.7275716 0.83664144 L 11.540381 0.83664144 A 0.33280826 0.33280826 0 0 1 11.873177 1.1694377 L 11.873177 3.0029175 A 0.25648392 0.25648392 0 0 0 12.129492 3.2592326 L 12.291756 3.2592326 A 0.29281449 0.29281449 0 0 0 12.584245 2.9662272 L 12.584245 0.74465739 C 12.584245 0.39731309 12.302688 0.11520501 11.955343 0.11575521 z M 6.3572347 1.9750732 C 6.1952078 1.9750732 6.0333525 2.037469 5.9092 2.1616252 L 2.1244181 5.9464071 C 1.8761124 6.1947133 1.8761124 6.5941707 2.1244181 6.8424764 L 5.9092 10.627258 C 6.1575057 10.875563 6.5574811 10.875564 6.8057861 10.627258 L 10.590568 6.8424764 C 10.838876 6.5941702 10.83887 6.1947127 10.590568 5.9464071 L 6.8057861 2.1616252 C 6.6816343 2.037472 6.5192615 1.9750732 6.3572347 1.9750732 z M 6.3572347 3.3367472 C 6.4693386 3.3367472 6.5813931 3.3795264 6.6672933 3.4654215 L 9.2862549 6.0843831 C 9.4580531 6.2561832 9.4580531 6.5326998 9.2862549 6.7045003 L 6.6672933 9.3234619 C 6.4954943 9.4952623 6.2189772 9.4952616 6.0471761 9.3234619 L 3.4287313 6.7045003 C 3.2569309 6.5326998 3.2569309 6.2561836 3.4287313 6.0843831 L 6.0471761 3.4654215 C 6.1330761 3.3795215 6.2451307 3.3367472 6.3572347 3.3367472 z M 0.40876058 9.4407674 A 0.29281449 0.29281449 0 0 0 0.11575521 9.7337728 L 0.11575521 11.955343 C 0.11575521 12.30269 0.39731248 12.584795 0.74465739 12.584245 C 1.4814924 12.582945 2.2185453 12.579177 2.9553752 12.575977 C 3.1232153 12.575239 3.2592326 12.438413 3.2592326 12.270569 L 3.2592326 12.149646 A 0.28633869 0.28633869 0 0 0 2.9729451 11.863875 L 1.1596191 11.863875 A 0.33280826 0.33280826 0 0 1 0.82682292 11.531079 L 0.82682292 9.6975993 A 0.25648392 0.25648392 0 0 0 0.57050781 9.4407674 L 0.40876058 9.4407674 z M 12.149646 9.4407674 A 0.28633869 0.28633869 0 0 0 11.863875 9.7275716 L 11.863875 11.540381 A 0.33280826 0.33280826 0 0 1 11.531079 11.873177 L 9.6975993 11.873177 A 0.25648392 0.25648392 0 0 0 9.4407674 12.129492 L 9.4407674 12.291756 A 0.29281449 0.29281449 0 0 0 9.7337728 12.584245 L 11.955859 12.584245 C 12.303205 12.584245 12.584796 12.302687 12.584245 11.955343 C 12.582945 11.218509 12.579177 10.481971 12.575977 9.7451416 C 12.575194 9.5773023 12.438413 9.4407674 12.270569 9.4407674 L 12.149646 9.4407674 z " /></g></svg>
